<?xml version="1.0"?><svg xmlns="http://www.w3.org/2000/svg" viewBox="0 0 50 50" width="50px" height="50px"><path fill="white" d="M 13 3 C 7.4886661 3 3 7.4886661 3 13 L 3 37 C 3 42.511334 7.4886661 47 13 47 L 37 47 C 42.511334 47 47 42.511334 47 37 L 47 13 C 47 7.4886661 42.511334 3 37 3 L 13 3 z M 14 5 L 20 5 L 20 22.589844 C 19.072441 22.212321 18.060485 22 17 22 C 15.939515 22 14.927559 22.212321 14 22.589844 L 14 5 z M 22 5 L 27.041016 5 C 27.051092 5.1930048 27.048667 5.3888117 27.064453 5.5800781 L 29.058594 5.4179688 C 29.047392 5.2800142 29.049038 5.138701 29.041016 5 L 34 5 C 34 5.184 34.003672 5.3668281 34.013672 5.5488281 L 36.011719 5.4472656 C 36.003719 5.2992656 36 5.15 36 5 L 37 5 C 41.430666 5 45 8.5693339 45 13 L 45 13.976562 C 44.84991 13.976678 44.701424 13.995583 44.552734 13.988281 L 44.451172 15.986328 C 44.633172 15.996328 44.816 16 45 16 L 45 20.958984 C 44.861299 20.950962 44.719986 20.952608 44.582031 20.941406 L 44.419922 22.935547 C 44.611188 22.951333 44.806995 22.948908 45 22.958984 L 45 35.974609 A 1 1 0 0 0 44.974609 35.974609 A 1 1 0 0 0 43.974609 36.974609 A 1 1 0 0 0 44.935547 37.972656 C 44.554489 41.134684 42.346976 43.719483 39.388672 44.638672 A 1 1 0 0 0 39.421875 44.386719 A 1 1 0 0 0 38.421875 43.386719 A 1 1 0 0 0 37.421875 44.386719 A 1 1 0 0 0 37.609375 44.96875 C 37.407637 44.983869 37.205723 45 37 45 L 22 45 L 22 36.232422 C 23.825586 34.764084 25 32.516047 25 30 C 25 27.483953 23.825586 25.235916 22 23.767578 L 22 21.916016 A 1 1 0 0 0 22.037109 21.917969 A 1 1 0 0 0 23.037109 20.917969 A 1 1 0 0 0 22.037109 19.917969 A 1 1 0 0 0 22 19.919922 L 22 5 z M 12 5.0644531 L 12 13.056641 A 1 1 0 0 0 11.205078 14.035156 A 1 1 0 0 0 12 15.013672 L 12 23.767578 C 10.174414 25.235916 9 27.483953 9 30 C 9 32.516047 10.174414 34.764084 12 36.232422 L 12 44.931641 C 8.045415 44.441222 5 41.091155 5 37 L 5 22.203125 A 1 1 0 0 0 5.6523438 22.447266 A 1 1 0 0 0 6.6523438 21.447266 A 1 1 0 0 0 5.6523438 20.447266 A 1 1 0 0 0 5 20.689453 L 5 13 C 5 12.095877 5.1554398 11.231254 5.4296875 10.421875 A 1 1 0 0 0 5.6523438 10.447266 A 1 1 0 0 0 6.6523438 9.4472656 A 1 1 0 0 0 6.2753906 8.6660156 C 7.5265722 6.7239584 9.5933665 5.3633707 12 5.0644531 z M 29.480469 8.0332031 L 27.537109 8.5058594 C 27.770109 9.4638594 28.082891 10.411312 28.462891 11.320312 L 30.306641 10.548828 C 29.966641 9.7358281 29.688469 8.8902031 29.480469 8.0332031 z M 36.525391 8.0390625 L 34.642578 8.7148438 C 35.006578 9.7308438 35.520969 10.687641 36.167969 11.556641 L 37.771484 10.363281 C 37.242484 9.6512812 36.823391 8.8700625 36.525391 8.0390625 z M 8.9296875 10.740234 A 1 1 0 0 0 7.9296875 11.740234 A 1 1 0 0 0 8.9296875 12.740234 A 1 1 0 0 0 9.9296875 11.740234 A 1 1 0 0 0 8.9296875 10.740234 z M 39.636719 12.228516 L 38.443359 13.833984 C 39.313359 14.479984 40.269156 14.993422 41.285156 15.357422 L 41.960938 13.474609 C 41.130938 13.176609 40.347719 12.757516 39.636719 12.228516 z M 31.515625 12.904297 L 29.8125 13.953125 C 30.3285 14.791125 30.915641 15.596703 31.556641 16.345703 L 33.076172 15.044922 C 32.502172 14.373922 31.977625 13.654297 31.515625 12.904297 z M 34.949219 16.917969 L 33.648438 18.4375 C 34.396437 19.0785 35.202062 19.666594 36.039062 20.183594 L 37.089844 18.480469 C 36.339844 18.017469 35.619219 17.491969 34.949219 16.917969 z M 39.443359 19.689453 L 38.671875 21.535156 C 39.580875 21.915156 40.526375 22.227937 41.484375 22.460938 L 41.958984 20.517578 C 41.101984 20.308578 40.255359 20.029453 39.443359 19.689453 z M 25.3125 22.210938 A 1 1 0 0 0 24.3125 23.210938 A 1 1 0 0 0 25.3125 24.210938 A 1 1 0 0 0 26.3125 23.210938 A 1 1 0 0 0 25.3125 22.210938 z M 8.9296875 22.740234 A 1 1 0 0 0 7.9296875 23.740234 A 1 1 0 0 0 8.9296875 24.740234 A 1 1 0 0 0 9.9296875 23.740234 A 1 1 0 0 0 8.9296875 22.740234 z M 17 24 C 20.325553 24 23 26.674447 23 30 C 23 33.325553 20.325553 36 17 36 C 13.674447 36 11 33.325553 11 30 C 11 26.674447 13.674447 24 17 24 z M 28.589844 24.505859 A 1 1 0 0 0 27.589844 25.505859 A 1 1 0 0 0 28.589844 26.505859 A 1 1 0 0 0 29.589844 25.505859 A 1 1 0 0 0 28.589844 24.505859 z M 17 26 L 14 34 L 17 32 L 20 34 L 17 26 z M 31.867188 26.798828 A 1 1 0 0 0 30.867188 27.798828 A 1 1 0 0 0 31.867188 28.798828 A 1 1 0 0 0 32.867188 27.798828 A 1 1 0 0 0 31.867188 26.798828 z M 35.144531 29.09375 A 1 1 0 0 0 34.144531 30.09375 A 1 1 0 0 0 34.244141 30.527344 C 33.676218 30.844226 32.803739 31.181641 31.570312 31.181641 C 29.284313 31.181641 28.404297 30.046875 28.404297 30.046875 C 27.513297 31.370875 27 32.989563 27 34.726562 C 27 39.300563 30.577 43 35 43 C 39.423 43 43 39.300562 43 34.726562 C 43 32.989562 42.48575 31.370875 41.59375 30.046875 C 41.59375 30.046875 40.713734 31.181641 38.427734 31.181641 C 37.356763 31.181641 36.547513 30.922263 35.978516 30.646484 A 1 1 0 0 0 36.144531 30.09375 A 1 1 0 0 0 35.144531 29.09375 z M 35 32.396484 C 35.81 32.805484 36.955687 33.181641 38.429688 33.181641 C 39.337688 33.181641 40.098516 33.045703 40.728516 32.845703 C 40.907516 33.445703 41.001953 34.079516 41.001953 34.728516 C 41.000953 38.186516 38.308 41 35 41 C 31.692 41 29 38.185562 29 34.726562 C 29 34.077562 29.091484 33.445703 29.271484 32.845703 C 29.900484 33.045703 30.663266 33.181641 31.572266 33.181641 C 33.045266 33.182641 34.19 32.805484 35 32.396484 z M 25.3125 34.210938 A 1 1 0 0 0 24.3125 35.210938 A 1 1 0 0 0 25.3125 36.210938 A 1 1 0 0 0 26.3125 35.210938 A 1 1 0 0 0 25.3125 34.210938 z M 14 37.410156 C 14.927559 37.787679 15.939515 38 17 38 C 18.060485 38 19.072441 37.787679 20 37.410156 L 20 45 L 14 45 L 14 37.410156 z"/></svg>